<svg width="29" height="28" viewBox="0 0 29 28" fill="none" xmlns="http://www.w3.org/2000/svg">
<path d="M25.6113 16.4042L25.6113 16.4042C25.5752 16.5735 25.4602 16.617 25.4111 16.617H10.6521H9.44244L9.6699 17.805L9.99943 19.5262L10.1549 20.3381H10.9816H24.4957C24.5361 20.3381 24.5887 20.3549 24.639 20.4222C24.6905 20.4912 24.7201 20.5928 24.6959 20.707L24.4675 21.7804H22.1942H11.6391H9.30028L10.9161 23.4712C11.2618 23.833 11.4861 24.3476 11.4861 24.9318C11.4861 26.1062 10.6103 26.9437 9.66667 26.9437C8.723 26.9437 7.84722 26.1062 7.84722 24.9318C7.84722 24.1554 8.24236 23.5063 8.787 23.1717L9.37561 22.8101L9.2457 22.1316L5.70891 3.66L5.55344 2.84806H4.72675H1.20833C1.17301 2.84806 1.12889 2.83459 1.08396 2.78659C1.03797 2.73746 1 2.65875 1 2.55722V1.69666C1 1.59513 1.03797 1.51642 1.08396 1.46729C1.12889 1.41929 1.17301 1.40582 1.20833 1.40582H6.37038C6.41996 1.40582 6.53858 1.45122 6.57203 1.62597L6.57204 1.62602L7.03352 4.03612L7.18899 4.84806H8.01568H27.7912C27.8316 4.84806 27.8841 4.86487 27.9344 4.93218C27.986 5.00113 28.0156 5.10271 27.9913 5.21689L25.6113 16.4042ZM22.9172 23.4712L24.4488 21.8683L24.4181 22.0126L24.2596 22.7578L24.9359 23.1085C25.5357 23.4195 25.9861 24.1017 25.9861 24.9318C25.9861 26.1062 25.1103 26.9437 24.1667 26.9437C23.223 26.9437 22.3472 26.1062 22.3472 24.9318C22.3472 24.3476 22.5715 23.833 22.9172 23.4712Z" stroke="white" stroke-width="2"/>
</svg>
