<svg width="18" height="18" viewBox="0 0 18 18" fill="none" xmlns="http://www.w3.org/2000/svg">
<path d="M4.70683 18H3.39679C2.7348 18.0003 2.08717 17.807 1.53357 17.444C0.979971 17.081 0.54456 16.5641 0.280907 15.9568C0.0172539 15.3495 -0.0631395 14.6784 0.0496177 14.0261C0.162375 13.3737 0.463364 12.7685 0.915553 12.285L1.94019 11.1857C2.43491 10.6555 2.70445 9.95393 2.69198 9.22885C2.6795 8.50377 2.386 7.81186 1.87334 7.299L0.866699 6.29229C0.749607 6.17104 0.684815 6.00865 0.68628 5.8401C0.687744 5.67154 0.755348 5.51031 0.87453 5.39112C0.993712 5.27193 1.15494 5.20432 1.32348 5.20285C1.49202 5.20139 1.65439 5.26618 1.77563 5.38329L2.78098 6.39C3.52917 7.13853 3.95752 8.14833 3.97575 9.20654C3.99398 10.2648 3.60065 11.2887 2.87869 12.0626L1.85405 13.1619C1.57383 13.4626 1.38746 13.8387 1.31779 14.2438C1.24811 14.649 1.29816 15.0657 1.4618 15.4428C1.62544 15.8199 1.89556 16.1411 2.23904 16.3669C2.58252 16.5928 2.98443 16.7135 3.39551 16.7143H4.04217C4.0396 16.452 4.04089 16.1229 4.05246 15.7474C4.08588 14.7703 4.19387 13.455 4.50242 12.1294C4.81097 10.8116 5.32779 9.432 6.21229 8.37C7.00037 7.42371 8.07129 6.74357 9.48033 6.58543V2.81057C9.48161 1.26 10.7402 0 12.292 0C12.9451 0 13.4747 0.531 13.4747 1.18543V1.80643H14.9879C15.8364 1.80643 16.6219 2.24486 17.0693 2.96614L17.6286 3.86871C18.6069 5.44886 17.5411 7.47386 15.7323 7.60371V16.002C15.7323 17.1051 14.8388 18 13.7357 18H13.0248V16.002C13.0249 15.5617 12.9384 15.1257 12.77 14.7189C12.6017 14.3121 12.3548 13.9424 12.0436 13.631C11.7323 13.3197 11.3628 13.0727 10.9561 12.9041C10.5493 12.7356 10.1134 12.6489 9.67317 12.6489H8.5444C8.37391 12.6489 8.21041 12.7166 8.08986 12.8371C7.96931 12.9577 7.90159 13.1212 7.90159 13.2917C7.90159 13.4622 7.96931 13.6257 8.08986 13.7463C8.21041 13.8668 8.37391 13.9346 8.5444 13.9346H9.67317C10.8135 13.9346 11.7392 14.8603 11.7392 16.002V18H4.70683Z" fill="#F8F8F8"/>
</svg>
